PathFileType	3	(X/Y/Z)	D:\minhoCalibration\240510\subject5_KPNP\preferred\preferred04.trc
DataRate	CameraRate	NumFrames	NumMarkers	Units	OrigDataRate	OrigDataStartFrame	OrigNumFrames
200.0	200.0	21	10	mm	200.0	180	201	
Frame#	Time	Left_Ankle_Outer1			Left_Ankle_Inner1			Left_Knee_Outer1			Left_Knee_Inner1			Left_Wrist1			Right_Wrist1			Right_Knee_Inner1			Right_Knee_Outer1			Right_Ankle_Inner1			Right_Ankle_Outer1			
		X1	Y1	Z1	X2	Y2	Z2	X3	Y3	Z3	X4	Y4	Z4	X5	Y5	Z5	X6	Y6	Z6	X7	Y7	Z7	X8	Y8	Z8	X9	Y9	Z9	X10	Y10	Z10	
180	0.89	-576.95703	72.584358	-577.22107	-616.58112	85.378258	-547.75159	-425.9155	526.51422	-501.66003	-510.29468	515.81232	-460.03674	-443.97104	998.23743	-684.13568	-770.08197	1024.9467	-689.48254	-835.34076	499.54633	-515.30341	-910.81506	553.12341	-538.22107	-763.92542	251.97067	-894.34985	-830.80884	313.54446	-930.90948
181	0.895	-576.9267	72.623871	-577.27222	-616.41656	85.452042	-547.84943	-424.89807	526.27698	-502.20596	-508.77356	515.54993	-460.15085	-441.1767	998.62378	-683.70801	-768.86829	1028.1646	-680.44226	-833.22595	506.61295	-496.52548	-909.23016	560.95374	-517.76666	-764.02899	259.54163	-875.43146	-830.82935	321.22626	-911.7887
182	0.9	-576.84961	72.564728	-577.3797	-615.88788	85.945374	-548.00238	-423.50803	525.98004	-503.10529	-507.18988	515.3031	-460.49945	-438.40698	998.56067	-683.5954	-764.51398	1031.2886	-675.56793	-830.8194	514.57184	-477.44739	-907.18414	568.4494	-498.08572	-764.28143	266.90012	-856.60992	-830.46405	329.06876	-892.7442
183	0.905	-576.61957	72.671631	-577.48694	-616.00488	85.899254	-547.85919	-422.36591	525.7793	-504.10037	-505.59955	515.2038	-460.88162	-436.03824	998.96954	-683.65759	-762.47144	1034.4886	-667.24017	-827.72644	522.35498	-458.49673	-904.08612	576.99646	-478.65976	-762.89606	274.87936	-837.93121	-829.79211	336.99741	-873.62024
184	0.91	-576.48517	72.588379	-577.68579	-615.78802	86.128944	-548.54279	-421.19562	525.48944	-505.18143	-504.00299	515.15265	-461.28925	-433.54376	999.44214	-683.87695	-759.81018	1037.4513	-660.3783	-824.76849	531.78882	-439.72479	-901.07355	585.54388	-459.00305	-762.49072	282.58719	-818.89374	-828.85675	345.0094	-854.57745
185	0.915	-576.16479	72.774544	-577.88239	-615.79987	85.994057	-548.51862	-419.94092	525.36536	-506.45834	-502.3241	515.04877	-461.97604	-431.31714	999.7392	-684.36707	-756.76996	1041.6128	-653.36615	-821.10144	541.24396	-420.6373	-897.84229	595.09082	-438.84158	-761.73566	290.67554	-800.34229	-828.1701	353.21738	-834.98431
186	0.92	-576.09509	72.744736	-578.02527	-615.40057	86.187973	-548.66168	-418.70438	525.30084	-507.83725	-500.71628	515.03632	-462.63168	-429.55997	999.75464	-685.13953	-753.94031	1043.9691	-646.86713	-815.99976	550.81049	-401.69281	-893.2915	605.02173	-419.55078	-760.92072	298.83102	-781.31909	-827.38995	361.79971	-815.61395
187	0.925	-575.28027	73.240562	-578.91754	-615.22131	86.454636	-548.66217	-417.73123	525.11713	-509.18896	-499.13531	515.03259	-463.39832	-427.58548	1000.2177	-685.91791	-750.62695	1048.4395	-639.54175	-811.49927	560.86536	-382.10645	-888.53888	615.40857	-399.89041	-760.73114	307.53522	-762.26233	-826.8064	370.79321	-796.15454
188	0.93	-575.0802	73.207817	-579.2041	-614.91174	86.453499	-548.7901	-416.63672	525.08417	-510.77206	-497.56824	515.06482	-464.09894	-426.44763	1001.4077	-687.92853	-747.32391	1051.5162	-632.90289	-806.02289	571.53387	-363.46268	-883.76361	625.95508	-380.60959	-759.60437	316.49561	-743.92493	-826.38684	380.03061	-776.57898
189	0.935	-575.10089	73.565849	-579.04871	-614.72607	87.306648	-548.74384	-415.74109	524.9834	-512.19336	-496.11093	515.08282	-464.75858	-428.17645	1000.7951	-691.81726	-744.37012	1055.4349	-625.43835	-800.17712	582.52319	-344.67596	-877.30804	636.81384	-361.60443	-759.27197	325.84958	-725.29492	-826.05829	389.75818	-757.03461
190	0.94	-574.95477	73.644981	-579.13885	-615.005	87.216331	-548.21613	-414.51547	525.01294	-513.81085	-494.64847	515.1582	-465.40897	-422.43903	1003.2139	-687.4259	-740.52777	1058.8737	-619.01135	-793.49518	593.72772	-326.20782	-871.27942	648.46661	-342.29666	-759.19849	335.58044	-706.84949	-826.05334	399.94983	-737.54333
191	0.945	-575.00305	73.822189	-579.14099	-614.1286	88.216339	-547.74146	-413.74283	524.91925	-515.22546	-493.25537	515.23352	-466.08218	-418.95926	1005.9879	-685.78467	-736.77441	1062.5573	-612.39221	-787.23236	605.5257	-307.54095	-864.38702	660.37054	-323.52966	-759.50269	345.80856	-688.49622	-826.38635	410.51541	-718.1629
192	0.95	-574.92181	74.061676	-579.23615	-614.51172	88.224861	-548.11755	-412.96326	524.80365	-516.64484	-491.83585	515.22998	-466.67761	-418.40955	1006.137	-687.90375	-733.21936	1066.2869	-605.59613	-779.88617	617.56909	-289.42072	-856.95532	672.29828	-305.47815	-760.06555	356.45602	-670.40253	-826.97803	421.7392	-698.96704
193	0.955	-574.88226	74.343643	-579.28247	-614.70874	88.084976	-548.18622	-412.32523	524.79053	-518.09198	-490.95367	515.55194	-465.94888	-417.44025	1006.634	-688.99316	-729.9328	1070.3793	-597.98749	-772.11066	629.73865	-271.75735	-849.51801	684.98425	-286.7742	-760.85455	367.56555	-652.61566	-827.92407	433.10684	-679.66296
194	0.96	-574.93225	74.635262	-579.26312	-614.64496	88.691917	-547.93549	-411.23734	524.80334	-519.53027	-489.3782	516.14044	-466.09793	-416.43521	1007.1521	-690.20245	-725.33295	1073.0409	-592.60504	-763.84692	642.02637	-254.00468	-841.56433	698.19141	-268.4404	-761.90497	379.1893	-635.06104	-829.13055	445.22946	-660.82062
195	0.965	-574.99298	74.925911	-579.17188	-614.30231	88.947258	-547.39777	-410.34674	524.7674	-520.88489	-487.67493	515.21771	-468.03513	-416.14536	1007.3098	-691.70953	-721.50104	1077.0094	-585.59961	-755.36548	654.66223	-237.00043	-833.1106	711.46051	-250.4164	-763.34344	391.10764	-617.69739	-830.54443	457.71716	-641.93555
196	0.97	-575.05219	75.204399	-579.08282	-614.02405	89.280151	-547.47205	-409.37955	524.7771	-522.36353	-486.14194	515.74744	-467.31226	-415.33148	1007.3661	-693.32672	-717.18353	1080.3228	-579.32916	-746.54462	667.40796	-220.27615	-823.76495	725.03693	-233.29463	-764.93848	403.4184	-600.38519	-832.06555	470.45709	-623.02759
197	0.975	-575.19049	75.488297	-578.91467	-614.12476	89.770203	-546.85175	-408.44531	524.74805	-523.7757	-483.31302	516.54633	-468.12332	-415.4317	1007.1815	-695.2326	-713.18842	1084.3456	-572.42426	-737.29095	680.15344	-203.97168	-813.86841	738.72144	-216.24323	-766.89075	415.94772	-583.2157	-833.77881	483.87985	-604.37476
198	0.98	-575.31781	75.948303	-578.79742	-613.57239	90.678673	-546.34985	-407.47705	524.65143	-525.2475	-482.30951	515.9436	-468.4563	-415.86783	1006.6143	-697.42188	-708.18048	1088.0063	-566.15778	-727.65881	693.04303	-187.40697	-803.70526	753.07935	-199.42178	-769.21973	428.68213	-566.17346	-835.63104	497.70529	-585.95514
199	0.985	-575.40234	76.413506	-578.64825	-614.00909	90.21978	-546.93298	-406.39328	524.59094	-526.80127	-480.26944	516.10309	-468.7699	-416.35123	1005.9081	-699.776	-703.68951	1092.0708	-558.76093	-717.41101	706.35803	-171.90904	-792.69299	767.2666	-183.24026	-771.86194	441.9675	-549.2356	-837.68127	512.18213	-567.7887
200	0.99	-575.62451	76.706879	-578.49597	-613.6543	90.883888	-546.23376	-405.10995	524.53821	-528.33441	-477.57266	516.19165	-470.58414	-417.43591	1004.8658	-702.30902	-698.53857	1095.8983	-552.15582	-706.526	719.51166	-157.23637	-781.20087	781.96783	-167.50221	-774.82941	455.60376	-532.62585	-839.96161	526.88702	-549.66327
